<mxfile host="app.diagrams.net" modified="2021-04-27T07:43:48.366Z" agent="5.0 (Windows NT 10.0; Win64; x64) AppleWebKit/537.36 (KHTML, like Gecko) Chrome/90.0.4430.85 Safari/537.36 Edg/90.0.818.46" etag="QqL-Mw2mrOBlBSpRKzfd" version="14.6.6" type="github">
  <diagram id="1iApkuaFD9m0gxRXavx3" name="Page-1">
    <mxGraphModel dx="947" dy="628" grid="1" gridSize="10" guides="1" tooltips="1" connect="1" arrows="1" fold="1" page="1" pageScale="1" pageWidth="1654" pageHeight="2336" math="0" shadow="0">
      <root>
        <mxCell id="0" />
        <mxCell id="1" parent="0" />
        <mxCell id="iZpSTczj3GWh2BJUJCLs-90" value="Launcher" style="swimlane;fontStyle=1;align=center;verticalAlign=top;childLayout=stackLayout;horizontal=1;startSize=30;horizontalStack=0;resizeParent=1;resizeParentMax=0;resizeLast=0;collapsible=1;marginBottom=0;shadow=0;dashed=0;fontSize=17;fontColor=#666666;strokeColor=#000000;strokeWidth=1;fillColor=inherit;gradientColor=inherit;html=1;" vertex="1" parent="1">
          <mxGeometry x="200" y="440" width="160" height="60" as="geometry" />
        </mxCell>
        <mxCell id="iZpSTczj3GWh2BJUJCLs-91" value="+ start()" style="text;strokeColor=none;fillColor=none;align=left;verticalAlign=top;spacingLeft=4;spacingRight=4;overflow=hidden;rotatable=0;points=[[0,0.5],[1,0.5]];portConstraint=eastwest;fontSize=15;" vertex="1" parent="iZpSTczj3GWh2BJUJCLs-90">
          <mxGeometry y="30" width="160" height="30" as="geometry" />
        </mxCell>
        <mxCell id="iZpSTczj3GWh2BJUJCLs-94" value="" style="endArrow=block;dashed=1;endFill=0;endSize=12;html=1;fontSize=15;fontColor=#666666;" edge="1" parent="1">
          <mxGeometry width="160" relative="1" as="geometry">
            <mxPoint x="280" y="440" as="sourcePoint" />
            <mxPoint x="420" y="450" as="targetPoint" />
          </mxGeometry>
        </mxCell>
        <mxCell id="iZpSTczj3GWh2BJUJCLs-95" value="launches" style="edgeLabel;html=1;align=center;verticalAlign=middle;resizable=0;points=[];fontSize=15;fontColor=#666666;" vertex="1" connectable="0" parent="iZpSTczj3GWh2BJUJCLs-94">
          <mxGeometry x="-0.4057" y="-2" relative="1" as="geometry">
            <mxPoint as="offset" />
          </mxGeometry>
        </mxCell>
        <mxCell id="iZpSTczj3GWh2BJUJCLs-98" value="" style="group" vertex="1" connectable="0" parent="1">
          <mxGeometry x="180" y="160" width="200" height="80" as="geometry" />
        </mxCell>
        <mxCell id="iZpSTczj3GWh2BJUJCLs-96" value="&lt;span style=&quot;font-size: 17px ; font-weight: 700&quot;&gt;Javafx::Application&lt;/span&gt;" style="rounded=0;whiteSpace=wrap;html=1;shadow=0;dashed=0;fontSize=15;fontColor=#666666;strokeColor=#000000;strokeWidth=1;fillColor=inherit;gradientColor=inherit;" vertex="1" parent="iZpSTczj3GWh2BJUJCLs-98">
          <mxGeometry width="200" height="40" as="geometry" />
        </mxCell>
        <mxCell id="iZpSTczj3GWh2BJUJCLs-97" value="" style="rounded=0;whiteSpace=wrap;html=1;shadow=0;dashed=0;fontSize=15;fontColor=#666666;strokeColor=#000000;strokeWidth=1;fillColor=inherit;gradientColor=inherit;" vertex="1" parent="iZpSTczj3GWh2BJUJCLs-98">
          <mxGeometry y="40" width="200" height="40" as="geometry" />
        </mxCell>
        <mxCell id="iZpSTczj3GWh2BJUJCLs-102" value="" style="group" vertex="1" connectable="0" parent="1">
          <mxGeometry x="440" y="310" width="160" height="60" as="geometry" />
        </mxCell>
        <mxCell id="iZpSTczj3GWh2BJUJCLs-100" value="&lt;span style=&quot;font-size: 17px ; font-weight: 700&quot;&gt;ArpCapApp&lt;/span&gt;" style="rounded=0;whiteSpace=wrap;html=1;shadow=0;dashed=0;fontSize=15;fontColor=#666666;strokeColor=#000000;strokeWidth=1;fillColor=inherit;gradientColor=inherit;" vertex="1" parent="iZpSTczj3GWh2BJUJCLs-102">
          <mxGeometry width="160" height="30" as="geometry" />
        </mxCell>
        <mxCell id="iZpSTczj3GWh2BJUJCLs-101" value="&lt;span style=&quot;color: rgb(0 , 0 , 0)&quot;&gt;+ start()&lt;/span&gt;" style="rounded=0;whiteSpace=wrap;html=1;shadow=0;dashed=0;fontSize=15;fontColor=#666666;strokeColor=#000000;strokeWidth=1;fillColor=inherit;gradientColor=inherit;align=left;" vertex="1" parent="iZpSTczj3GWh2BJUJCLs-102">
          <mxGeometry y="30" width="160" height="30" as="geometry" />
        </mxCell>
        <mxCell id="iZpSTczj3GWh2BJUJCLs-103" value="" style="group" vertex="1" connectable="0" parent="1">
          <mxGeometry x="450" y="430" width="160" height="60" as="geometry" />
        </mxCell>
        <mxCell id="iZpSTczj3GWh2BJUJCLs-104" value="&lt;span style=&quot;font-size: 17px ; font-weight: 700&quot;&gt;Launcher&lt;/span&gt;" style="rounded=0;whiteSpace=wrap;html=1;shadow=0;dashed=0;fontSize=15;fontColor=#666666;strokeColor=#000000;strokeWidth=1;fillColor=inherit;gradientColor=inherit;" vertex="1" parent="iZpSTczj3GWh2BJUJCLs-103">
          <mxGeometry width="160" height="30" as="geometry" />
        </mxCell>
        <mxCell id="iZpSTczj3GWh2BJUJCLs-105" value="&lt;span style=&quot;color: rgb(0 , 0 , 0)&quot;&gt;+ main()&lt;/span&gt;" style="rounded=0;whiteSpace=wrap;html=1;shadow=0;dashed=0;fontSize=15;fontColor=#666666;strokeColor=#000000;strokeWidth=1;fillColor=inherit;gradientColor=inherit;align=left;" vertex="1" parent="iZpSTczj3GWh2BJUJCLs-103">
          <mxGeometry y="30" width="160" height="30" as="geometry" />
        </mxCell>
      </root>
    </mxGraphModel>
  </diagram>
</mxfile>
